<svg width="512" height="512" viewBox="0 0 512 512" fill="none" xmlns="http://www.w3.org/2000/svg">
  <rect x="13" y="13" width="486" height="486" rx="42" fill="white" stroke="#B59A5C" stroke-width="26"/>
  <path d="M256 92L318 176L365 111C421 184 426 253 386 281C358 301 319 306 279 306V361H234V306C193 306 154 301 126 281C86 253 91 184 147 111L194 176L256 92Z" fill="#05A957" stroke="#B59A5C" stroke-width="9" stroke-linejoin="round"/>
  <path d="M196 177L256 257L316 177" stroke="white" stroke-width="31" stroke-linecap="round" stroke-linejoin="round"/>
  <path d="M256 257L226 216L256 175L286 216L256 257Z" fill="white" stroke="#B59A5C" stroke-width="7"/>
  <g fill="#05A957" stroke="#B59A5C" stroke-width="8">
    <path d="M100 216C68 178 71 136 92 102C116 139 117 176 100 216Z"/>
    <path d="M125 155C126 112 149 78 186 53C176 97 155 130 125 155Z"/>
    <path d="M123 218C121 179 141 149 177 125C169 165 149 195 123 218Z"/>
    <path d="M112 269C74 251 52 221 49 179C86 199 107 229 112 269Z"/>
    <path d="M153 300C110 292 80 270 60 232C104 243 135 266 153 300Z"/>
    <path d="M210 334C164 333 127 316 96 283C144 284 181 301 210 334Z"/>
    <path d="M411 216C444 178 441 136 420 102C396 139 395 176 411 216Z"/>
    <path d="M386 155C385 112 362 78 325 53C335 97 356 130 386 155Z"/>
    <path d="M388 218C390 179 370 149 334 125C342 165 362 195 388 218Z"/>
    <path d="M399 269C437 251 459 221 462 179C425 199 404 229 399 269Z"/>
    <path d="M358 300C401 292 431 270 451 232C407 243 376 266 358 300Z"/>
    <path d="M301 334C347 333 384 316 415 283C367 284 330 301 301 334Z"/>
  </g>
  <path d="M151 374H201C218 374 229 383 229 399V417H203V405C203 398 199 395 192 395H165C158 395 154 399 154 407V431C154 439 158 443 166 443H193C200 443 204 439 204 432V421H230V438C230 455 219 464 201 464H151C132 464 121 453 121 434V404C121 385 132 374 151 374Z" fill="#30358F"/>
  <path d="M247 374H316C335 374 346 384 346 402V417C346 435 335 445 316 445H273V464H247V374ZM273 396V424H310C317 424 321 421 321 414V406C321 399 317 396 310 396H273Z" fill="#30358F"/>
  <path d="M363 374H443V396H389V419H436V441H389V464H363V374Z" fill="#30358F"/>
</svg>
